#!OML:ASF I:\Random Stuff\random\construction\7_22_03\Session 2\subj1.ASF
:FULLY-SPECIFIED
:DEGREES
659
root -1.77223 17.7375 0.437613 -21.64 84.8181 -27.684
lowerback -2.05277 0.271812 0.87333
upperback -3.62992 0.453675 1.447
thorax -2.58 0.253299 0.993893
lowerneck -22.5094 -2.01212 0.718414
upperneck 32.2265 -3.66352 2.52257
head 15.0599 -0.866368 0.280416
rclavicle 9.25591e-016 5.56597e-015
rhumerus 20.7238 20.3165 -66.6673
rradius 102.953
rwrist -49.3262
rhand -33.7714 2.86169
rfingers 7.12502
rthumb -6.95888 -27.0039
lclavicle 9.25591e-016 5.56597e-015
lhumerus -41.7468 -39.1947 112.275
lradius 65.5511
lwrist 52.4567
lhand -21.6922 65.7436
lfingers 7.12502
lthumb 4.70595 -95.6713
rfemur -2.75205 16.2505 20.1308
rtibia 5.53423
rfoot -2.36272 -21.3431
rtoes -18.586
lfemur -9.45008 -16.9687 -13.414
ltibia 19.5833
lfoot -15.1426 17.3165
ltoes -28.0642
660
root -1.77481 17.7392 0.437837 -21.447 84.8818 -27.5095
lowerback -2.0585 0.269064 0.793947
upperback -3.63764 0.450746 1.45837
thorax -2.58538 0.254186 1.05007
lowerneck -22.6364 -2.05742 0.643875
upperneck 32.3983 -3.71174 2.5414
head 15.1711 -0.885926 0.292416
rclavicle 1.86982e-015 6.55989e-015
rhumerus 19.3656 21.0373 -66.6422
rradius 102.941
rwrist -49.5632
rhand -33.7029 3.23122
rfingers 7.12502
rthumb -6.89276 -26.6366
lclavicle 1.86982e-015 6.55989e-015
lhumerus -41.6546 -39.0967 112.228
lradius 65.5727
lwrist 52.4597
lhand -21.7192 65.9625
lfingers 7.12502
lthumb 4.6799 -95.8909
rfemur -2.78127 16.1963 20.0762
rtibia 5.54963
rfoot -2.43271 -21.3471
rtoes -18.2983
lfemur -9.48879 -16.968 -13.4534
ltibia 19.567
lfoot -15.08 17.3081
ltoes -28.1415
661
root -1.77952 17.7391 0.439119 -22.2175 84.951 -28.2485
lowerback -1.94235 0.25849 0.770529
upperback -3.66487 0.440273 1.48893
thorax -2.6791 0.250173 1.09396
lowerneck -22.6932 -2.0175 0.585863
upperneck 32.4515 -3.64867 2.59298
head 15.2107 -0.856451 0.336452
rclavicle -6.34247e-015 -5.96354e-015
rhumerus 17.894 21.7287 -66.6639
rradius 103.018
rwrist -49.7787
rhand -33.5114 3.40222
rfingers 7.12502
rthumb -6.70791 -26.4715
lclavicle -6.34247e-015 -5.96354e-015
lhumerus -41.645 -39.0086 112.203
lradius 65.5977
lwrist 52.419
lhand -21.6238 65.8413
lfingers 7.12502
lthumb 4.77204 -95.7675
rfemur -2.76835 16.1083 20.1321
rtibia 5.61484
rfoot -2.54811 -21.3737
rtoes -17.9792
lfemur -9.49133 -16.8569 -13.4179
ltibia 19.5505
lfoot -15.0189 17.1456
ltoes -28.2677
662
root -1.78381 17.7379 0.440459 -23.0006 85.02 -28.9994
lowerback -1.85046 0.239679 0.740947
upperback -3.68041 0.418314 1.53069
thorax -2.7471 0.240767 1.15311
lowerneck -22.6851 -1.91069 0.57293
upperneck 32.387 -3.47851 2.57847
head 15.176 -0.791384 0.365007
rclavicle -1.69215e-014 -8.34896e-015
rhumerus 16.4187 22.3609 -66.7084
rradius 103.083
rwrist -49.9065
rhand -32.7879 3.40906
rfingers 7.12502
rthumb -6.0094 -26.4857
lclavicle -1.69215e-014 -8.34896e-015
lhumerus -41.6816 -38.9416 112.218
lradius 65.6385
lwrist 52.5393
lhand -21.7497 65.6126
lfingers 7.12502
lthumb 4.65044 -95.5416
rfemur -2.73449 16.0201 20.1885
rtibia 5.63342
rfoot -2.56219 -21.3717
rtoes -17.9466
lfemur -9.50203 -16.8106 -13.3767
ltibia 19.5579
lfoot -15.0081 17.0015
ltoes -28.248
663
root -1.7859 17.7373 0.441264 -22.9863 85.0927 -28.9829
lowerback -1.84365 0.222634 0.655068
upperback -3.67742 0.396184 1.55588
thorax -2.74825 0.232418 1.22723
lowerneck -22.7042 -1.90103 0.486819
upperneck 32.4327 -3.44778 2.63097
head 15.2044 -0.779553 0.408303
rclavicle -6.21202e-015 -5.36719e-015
rhumerus 14.9348 22.9628 -66.7988
rradius 103.114
rwrist -49.978
rhand -31.7306 3.24198
rfingers 7.12502
rthumb -4.98856 -26.6793
lclavicle -6.21202e-015 -5.36719e-015
lhumerus -41.6436 -38.8511 112.171
lradius 65.669
lwrist 52.5958
lhand -21.4522 65.6976
lfingers 7.12502
lthumb 4.93775 -95.62
rfemur -2.72112 15.9537 20.1592
rtibia 5.61643
rfoot -2.53913 -21.364
rtoes -18.0835
lfemur -9.53727 -16.9161 -13.4007
ltibia 19.5791
lfoot -15.0562 17.0087
ltoes -28.1217
664
root -1.78712 17.7377 0.44329 -23.1178 85.1518 -29.1118
lowerback -1.81671 0.234092 0.584211
upperback -3.68568 0.413078 1.58608
thorax -2.77297 0.243436 1.29777
lowerneck -22.736 -1.98861 0.283934
upperneck 32.5517 -3.54928 2.7814
head 15.2777 -0.820148 0.488175
rclavicle -5.40446e-016 -1.03368e-014
rhumerus 13.3089 23.5319 -66.9429
rradius 103.184
rwrist -50.2078
rhand -30.9453 3.12619
rfingers 7.12502
rthumb -4.23034 -26.8115
lclavicle -5.40446e-016 -1.03368e-014
lhumerus -41.5972 -38.8328 112.156
lradius 65.6929
lwrist 52.6046
lhand -20.7502 65.8015
lfingers 7.12502
lthumb 5.61554 -95.7071
rfemur -2.72223 15.8954 20.1537
rtibia 5.64903
rfoot -2.61372 -21.3715
rtoes -17.8895
lfemur -9.54932 -16.9943 -13.4119
ltibia 19.5793
lfoot -15.0419 17.0411
ltoes -28.2276
665
root -1.78838 17.7376 0.4459 -23.5315 85.2269 -29.5242
lowerback -1.74888 0.2531 0.487506
upperback -3.7207 0.442598 1.64591
thorax -2.84919 0.262457 1.41295
lowerneck -22.7421 -2.04252 0.124068
upperneck 32.6151 -3.57703 2.82075
head 15.3137 -0.843566 0.527789
rclavicle 1.17594e-014 -9.54166e-015
rhumerus 11.5366 24.1171 -67.115
rradius 103.296
rwrist -50.6433
rhand -30.3643 2.9027
rfingers 7.12502
rthumb -3.66925 -27.0455
lclavicle 1.17594e-014 -9.54166e-015
lhumerus -41.5732 -38.7904 112.207
lradius 65.6893
lwrist 52.5925
lhand -20.4043 65.6823
lfingers 7.12502
lthumb 5.94949 -95.5788
rfemur -2.72303 15.8135 20.1674
rtibia 5.68606
rfoot -2.68937 -21.3833
rtoes -17.7218
lfemur -9.5614 -17.0853 -13.403
ltibia 19.5657
lfoot -14.9996 17.0529
ltoes -28.1187
666
root -1.78924 17.7381 0.446721 -23.6956 85.3318 -29.7218
lowerback -1.70587 0.263733 0.346234
upperback -3.77196 0.461755 1.72166
thorax -2.92873 0.278314 1.56971
lowerneck -22.7378 -2.0422 0.0209645
upperneck 32.6102 -3.50589 2.74562
head 15.3085 -0.838629 0.527728
rclavicle -6.83322e-016 6.16232e-015
rhumerus 9.73181 24.7211 -67.3062
rradius 103.363
rwrist -51.0585
rhand -29.5757 2.1535
rfingers 7.12502
rthumb -2.90768 -27.8064
lclavicle -6.83322e-016 6.16232e-015
lhumerus -41.5401 -38.5751 112.249
lradius 65.6816
lwrist 52.5436
lhand -20.3706 65.578
lfingers 7.12502
lthumb 5.98207 -95.4735
rfemur -2.76033 15.711 20.1308
rtibia 5.71744
rfoot -2.68914 -21.3844
rtoes -17.9378
lfemur -9.62391 -17.2341 -13.4134
ltibia 19.549
lfoot -15.013 17.0587
ltoes -27.7949
667
root -1.79026 17.7396 0.445668 -23.9175 85.4432 -29.9735
lowerback -1.72776 0.257968 0.359222
upperback -3.77093 0.453519 1.709
thorax -2.91491 0.273619 1.54958
lowerneck -22.7592 -2.00807 -0.0315139
upperneck 32.5725 -3.43473 2.74722
head 15.2953 -0.816687 0.550662
rclavicle 5.37961e-015 1.59028e-015
rhumerus 8.02009 25.2757 -67.6807
rradius 103.292
rwrist -51.1948
rhand -28.9108 1.9009
rfingers 7.12502
rthumb -2.26558 -28.0668
lclavicle 5.37961e-015 1.59028e-015
lhumerus -41.4507 -38.3532 112.104
lradius 65.6985
lwrist 52.5341
lhand -20.4403 65.686
lfingers 7.12502
lthumb 5.91474 -95.5834
rfemur -2.78836 15.6004 20.0893
rtibia 5.73617
rfoot -2.67601 -21.3793
rtoes -18.1411
lfemur -9.69012 -17.3198 -13.4354
ltibia 19.5377
lfoot -14.9691 17.0486
ltoes -28.0463
668
root -1.79285 17.7401 0.444869 -24.372 85.5694 -30.4335
lowerback -1.7183 0.22951 0.407427
upperback -3.75501 0.4141 1.68067
thorax -2.90216 0.251719 1.49369
lowerneck -22.8366 -1.91574 0.0116069
upperneck 32.6152 -3.2956 2.6909
head 15.3276 -0.759666 0.546762
rclavicle -2.45996e-015 5.96354e-015
rhumerus 6.29289 25.8554 -68.1811
rradius 103.097
rwrist -51.0925
rhand -28.7243 2.70408
rfingers 7.12502
rthumb -2.0854 -27.2655
lclavicle -2.45996e-015 5.96354e-015
lhumerus -41.3693 -38.2168 111.942
lradius 65.6744
lwrist 52.5093
lhand -20.5134 65.7496
lfingers 7.12502
lthumb 5.84415 -95.649
rfemur -2.76533 15.4703 20.0634
rtibia 5.70156
rfoot -2.70679 -21.3757
rtoes -18.0412
lfemur -9.73929 -17.4361 -13.4581
ltibia 19.5384
lfoot -14.895 17.0707
ltoes -28.3661
669
root -1.79897 17.741 0.446226 -25.7451 85.6417 -31.8571
lowerback -1.73477 0.213319 0.545744
upperback -3.74259 0.391789 1.66453
thorax -2.87849 0.236328 1.39977
lowerneck -22.9691 -1.79698 0.0904713
upperneck 32.6925 -3.11267 2.57869
head 15.386 -0.687059 0.52183
rclavicle -8.10048e-015 2.46493e-014
rhumerus 4.51264 26.3685 -68.7565
rradius 102.861
rwrist -51.1268
rhand -28.459 3.28142
rfingers 7.12502
rthumb -1.82924 -26.6905
lclavicle -8.10048e-015 2.46493e-014
lhumerus -41.2654 -38.1822 111.762
lradius 65.6084
lwrist 52.3872
lhand -20.1977 65.8066
lfingers 7.12502
lthumb 6.14891 -95.6974
rfemur -2.83682 15.3593 20.1306
rtibia 5.72186
rfoot -2.78412 -21.3745
rtoes -17.5742
lfemur -9.84695 -17.5657 -13.3442
ltibia 19.5235
lfoot -14.866 17.0805
ltoes -28.2919
